<?xml version="1.0" encoding="utf-8"?>
<!-- Generator: Adobe Illustrator 25.1.0, SVG Export Plug-In . SVG Version: 6.00 Build 0)  -->
<svg version="1.1" id="_x34_" xmlns="http://www.w3.org/2000/svg" xmlns:xlink="http://www.w3.org/1999/xlink" x="0px" y="0px"
	 viewBox="0 0 267 282" style="enable-background:new 0 0 267 282;" xml:space="preserve">
<style type="text/css">
	.st0{fill-rule:evenodd;clip-rule:evenodd;fill:#EC164F;}
	.st1{fill-rule:evenodd;clip-rule:evenodd;fill:#FEFEFE;}
	.st2{fill-rule:evenodd;clip-rule:evenodd;fill:none;}
	.st3{fill-rule:evenodd;clip-rule:evenodd;fill:#5F5F5F;}
	.st4{fill-rule:evenodd;clip-rule:evenodd;fill:#434443;}
	.st5{fill-rule:evenodd;clip-rule:evenodd;fill:#22201E;}
	.st6{fill-rule:evenodd;clip-rule:evenodd;fill:#BABCBE;}
</style>
<path class="st0" d="M257.1,164.3L154.5,93.8l72.9-33.1c8.1,9.2,15,19.6,20.3,31.3C258.4,115.5,261.1,140.6,257.1,164.3L257.1,164.3
	z M158.7,266l8.4-79.2L53,238.6C81.8,263.1,120.8,273.6,158.7,266L158.7,266z M174.3,261.7c3.8-1.3,7.6-2.8,11.3-4.5
	c33.9-15.4,57.6-44.2,67.7-77.2l-65.7-45.1L174.3,261.7z M41.3,227.2l72.8-33L11.4,120.6c-1.4,7.6-2.2,15.3-2.2,23.2v0.2
	c0,17.2,3.6,34.7,11.1,51.3C25.8,207.2,32.9,217.9,41.3,227.2L41.3,227.2z M92.6,25.9c-3.4,1.2-6.8,2.5-10.2,4.1
	c-33.1,15-56.5,42.8-67,75l65.3,46.8L92.6,25.9z M108.9,21.9l-8.3,79.2l114-51.8C185.8,24.8,146.8,14.2,108.9,21.9L108.9,21.9z"/>
<path class="st1" d="M87.9,74.6c-68.5,46-35.6,152.5,46.2,152.5c81.7,0,114.7-106.5,46.2-152.5C152.5,56,115.5,56,87.9,74.6
	L87.9,74.6z"/>
<path class="st2" d="M99.1,91.5C47.4,126.3,72.2,206.8,134,206.8c61.8,0,86.7-80.5,34.9-115.3C148,77.5,120,77.5,99.1,91.5
	L99.1,91.5z"/>
<path class="st3" d="M106.2,102.1c-41.3,27.7-21.5,92,27.8,92c49.3,0,69.2-64.2,27.8-92C145.1,90.9,122.9,90.9,106.2,102.1
	L106.2,102.1z"/>
<path class="st4" d="M109.4,107c-36.4,24.5-19,81.2,24.6,81.2c43.5,0,61-56.7,24.6-81.2C143.8,97.1,124.2,97.2,109.4,107L109.4,107z
	"/>
<path class="st5" d="M120.4,123.5c-20.2,13.6-10.5,45,13.6,45c24.1,0,33.9-31.4,13.6-45C139.5,118,128.5,118,120.4,123.5
	L120.4,123.5z"/>
<path class="st6" d="M118.5,135.6c-9.6-6.4-5-21.3,6.4-21.3c11.4,0,16,14.9,6.4,21.3C127.5,138.2,122.4,138.2,118.5,135.6
	L118.5,135.6z"/>
<path class="st1" d="M145,168.2c-4.7-3.2-2.4-10.5,3.2-10.5c5.6,0,7.9,7.3,3.2,10.5C149.5,169.5,146.9,169.5,145,168.2L145,168.2z"
	/>
</svg>
